<svg width="82" height="82" version="1.1" xmlns="http://www.w3.org/2000/svg" desc="Created with imagetracer.js version 1.2.6" ><path fill="rgb(213,210,213)" stroke="rgb(213,210,213)" stroke-width="1" opacity="0.9372549019607843" d="M 32.5 0 L 31.5 2 Q 24.9 2.9 22 7.5 L 20 10.5 L 20 12.5 Q 16.7 16.4 18 24 L 14 22 L 14 26 Q 11 25 12 28 L 8 28 L 8 32 Q 11.7 30.8 10 36 L 6 34 Q 6.8 37.1 4 36.5 L 4 42 Q 7 41 6 44 L 2 46 L 2 52 Q 4.7 50.9 4 53.5 L 3 55.5 Q 6.4 64.6 13 70.5 L 7 65.5 L 0 49.5 L 0 32.5 Q 3.8 16.3 15.5 8 Q 22.1 2.1 32.5 0 Z M 17 18 L 16 22 L 17 22 L 17 18 Z M 10 24 Q 9 27 12 26 Q 13 23 10 24 Z M 4 32 Q 3 35 6 34 Q 7 31 4 32 Z " /><path fill="rgb(213,210,213)" stroke="rgb(213,210,213)" stroke-width="1" opacity="0.9372549019607843" d="M 35.5 0 Q 48.6 -1.6 56.5 2 Q 67.8 7.2 75 16.5 Q 80.1 22.9 82 32.5 L 82 49.5 Q 79 62.5 70.5 70 L 69 69.5 L 71 68.5 L 68 68 Q 66.8 64.3 72 66 L 72 56.5 Q 74.8 57.1 74 54 Q 70.3 55.2 72 50 Q 75 51 74 48 Q 68.8 49.7 70 46 Q 73.7 47.2 72 42 L 70 41.5 L 70 32.5 L 68 31.5 L 68 24 Q 71 25 70 22 L 68 21.5 L 68 12 L 66 12 L 64 8 L 57.5 8 Q 56.3 10.3 55 7.5 Q 55.8 5.3 53.5 6 L 45.5 1 L 43.5 2 Q 41.8 -0.8 35.5 1 L 35.5 0 Z " /><path fill="rgb(213,210,213)" stroke="rgb(213,210,213)" stroke-width="1" opacity="0.9372549019607843" d="M 58.5 12 Q 60.8 12.8 60 16.5 L 59 16.5 L 58.5 12 Z " /><path fill="rgb(213,210,213)" stroke="rgb(213,210,213)" stroke-width="1" opacity="0.9372549019607843" d="M 6 38 Q 9 37 8 40 Q 5 41 6 38 Z " /><path fill="rgb(213,210,213)" stroke="rgb(213,210,213)" stroke-width="1" opacity="0.9372549019607843" d="M 57.5 63 L 58.5 65 L 57.5 63 Z " /><path fill="rgb(29,16,20)" stroke="rgb(29,16,20)" stroke-width="1" opacity="0.20392156862745098" d="M 68 70 Q 71 69 70 72 L 68 72 Q 69.1 74.7 66.5 74 L 68 71.5 L 68 70 Z " /><path fill="rgb(29,16,20)" stroke="rgb(29,16,20)" stroke-width="1" opacity="0.20392156862745098" d="M 13.5 71 L 15.5 74 Q 13.3 74.8 14 72.5 L 13.5 71 Z " /><path fill="rgb(29,16,20)" stroke="rgb(29,16,20)" stroke-width="1" opacity="0.20392156862745098" d="M 17.5 74 L 18.5 76 L 17.5 74 Z " /><path fill="rgb(29,16,20)" stroke="rgb(29,16,20)" stroke-width="1" opacity="0.20392156862745098" d="M 64.5 74 L 63.5 76 L 64.5 74 Z " /><path fill="rgb(29,16,20)" stroke="rgb(29,16,20)" stroke-width="1" opacity="0.20392156862745098" d="M 20.5 76 L 23 77.5 L 21.5 78 L 20.5 76 Z " /><path fill="rgb(29,16,20)" stroke="rgb(29,16,20)" stroke-width="1" opacity="0.20392156862745098" d="M 61.5 76 L 60.5 78 L 59 77.5 L 61.5 76 Z " /><path fill="rgb(29,16,20)" stroke="rgb(29,16,20)" stroke-width="1" opacity="0.20392156862745098" d="M 28.5 80 L 31 80.5 L 28.5 81 L 28.5 80 Z " /><path fill="rgb(29,16,20)" stroke="rgb(29,16,20)" stroke-width="1" opacity="0.20392156862745098" d="M 51.5 80 L 54 80.5 L 51.5 81 L 51.5 80 Z " /><path fill="rgb(29,16,20)" stroke="rgb(29,16,20)" stroke-width="1" opacity="0.20392156862745098" d="M 32.5 81 L 36 81.5 L 32.5 82 L 32.5 81 Z " /><path fill="rgb(29,16,20)" stroke="rgb(29,16,20)" stroke-width="1" opacity="0.20392156862745098" d="M 46.5 81 L 50 81.5 L 46.5 82 L 46.5 81 Z " /><path fill="rgb(27,15,16)" stroke="rgb(27,15,16)" stroke-width="1" opacity="0.9882352941176471" d="M 37.5 1 L 44.5 3 L 46.5 3 L 48.5 3 L 54 7.5 L 56 10.5 L 58 12.5 L 60 20.5 L 60 30.5 L 57.5 36 L 56.5 34 L 55 34.5 L 54 31.5 L 57 31 L 55 20.5 L 51.5 16 L 43.5 14 L 34.5 14 L 26 17 L 23 31 L 28.5 30 L 28.5 31 L 27 31.5 Q 28.3 34.3 29.5 32 L 35 32.5 L 28.5 34 L 27 33.5 L 26.5 35 L 26 33 Q 21.1 31.2 23 37.5 L 22 37.5 Q 22.7 32.2 19 31.5 L 18 18.5 L 24 6 L 30.5 2 Q 36 3.5 37.5 1 Z " /><path fill="rgb(27,15,16)" stroke="rgb(27,15,16)" stroke-width="1" opacity="0.9882352941176471" d="M 38.5 31 L 41.5 32 L 43.5 31 L 43 32.5 L 44 37.5 L 43 37.5 L 42 34 L 39 35.5 L 38.5 37 L 38 35.5 L 39 32.5 L 38.5 31 Z " /><path fill="rgb(27,15,16)" stroke="rgb(27,15,16)" stroke-width="1" opacity="0.9882352941176471" d="M 46.5 32 Q 51.8 30.8 53 33.5 L 51.5 33 Q 45.5 34.3 46.5 32 Z " /><path fill="rgb(27,15,16)" stroke="rgb(27,15,16)" stroke-width="1" opacity="0.9882352941176471" d="M 45.5 39 L 46.5 41 L 45.5 39 Z " /><path fill="rgb(27,15,16)" stroke="rgb(27,15,16)" stroke-width="1" opacity="0.9882352941176471" d="M 46.5 47 L 49 47.5 L 46.5 48 L 46.5 47 Z " /><path fill="rgb(27,15,16)" stroke="rgb(27,15,16)" stroke-width="1" opacity="0.9882352941176471" d="M 46.5 59 L 45.5 61 L 39.5 62 L 39.5 61 Q 44.8 61.8 46.5 59 Z " /><path fill="rgb(27,15,16)" stroke="rgb(27,15,16)" stroke-width="1" opacity="0.9882352941176471" d="M 54.5 62 L 65.5 69 L 68 69 Q 68.8 72.8 65.5 74 Q 55.7 82.7 36.5 82 L 27.5 80 L 14 71.5 L 26.5 63 L 26 64.5 L 25 67.5 L 29.5 74 L 38.5 78 L 42.5 78 Q 49.3 75.8 53 70.5 L 55 63.5 L 54.5 62 Z " /><path fill="rgb(195,136,113)" stroke="rgb(195,136,113)" stroke-width="1" opacity="0.996078431372549" d="M 34.5 0 L 37 1.5 L 32.5 2 L 32.5 1 L 34.5 0 Z " /><path fill="rgb(195,136,113)" stroke="rgb(195,136,113)" stroke-width="1" opacity="0.996078431372549" d="M 38.5 1 L 43 1.5 L 38.5 2 L 38.5 1 Z " /><path fill="rgb(195,136,113)" stroke="rgb(195,136,113)" stroke-width="1" opacity="0.996078431372549" d="M 49.5 3 L 50.5 5 L 49.5 3 Z " /><path fill="rgb(195,136,113)" stroke="rgb(195,136,113)" stroke-width="1" opacity="0.996078431372549" d="M 26.5 4 L 25.5 6 Q 23.3 5.3 24 7.5 L 22 8.5 L 24.5 5 L 26.5 4 Z " /><path fill="rgb(195,136,113)" stroke="rgb(195,136,113)" stroke-width="1" opacity="0.996078431372549" d="M 52.5 5 L 55.5 9 Q 53.3 9.8 54 7.5 L 52.5 5 Z " /><path fill="rgb(195,136,113)" stroke="rgb(195,136,113)" stroke-width="1" opacity="0.996078431372549" d="M 56.5 10 L 57.5 12 L 56.5 10 Z " /><path fill="rgb(195,136,113)" stroke="rgb(195,136,113)" stroke-width="1" opacity="0.996078431372549" d="M 58.5 13 L 59 15.5 L 58 15.5 L 58.5 13 Z " /><path fill="rgb(195,136,113)" stroke="rgb(195,136,113)" stroke-width="1" opacity="0.996078431372549" d="M 34.5 14 L 43.5 14 L 51.5 16 L 54 18.5 L 57 30.5 L 56 30.5 Q 53.3 27.2 54 20.5 L 51.5 18 L 45.5 17 L 42.5 15 L 36.5 15 L 30.5 17 L 28 19.5 L 26 26.5 Q 27.2 29.3 28.5 27 Q 35.8 25.8 38 29.5 L 40 35.5 L 38 35.5 L 39 37.5 L 36 42 L 38.5 41 L 43.5 43 L 46 41.5 Q 40.8 39.3 44.5 37 L 45.5 40 L 47.5 40 L 53 39 L 54 36.5 L 49.5 34 L 49.5 36 L 45 35 L 43 29.5 L 48.5 27 L 50.5 28 L 52.5 28 Q 55.5 27.1 54 31.5 L 55.5 35 L 57 34.5 L 57.5 36 L 58 33 Q 60.7 31.9 60 34.5 L 56.5 41 L 56 38.5 Q 58.3 37.3 55.5 36 L 52.5 40 L 48 41.5 Q 48.5 45.5 53.5 45 L 56 43.5 L 55 49.5 Q 51 52.8 51 59 L 42.5 66 L 34 66 Q 35.2 62.3 30 64 L 32 68 Q 28.2 67 27 69.5 L 30 73.5 L 27 71.5 L 25 66.5 Q 29.5 63 28 53.5 Q 24.3 50.4 24 45 Q 19.9 46.7 21 42.5 L 18 33.5 Q 20 30 22 34.5 L 22 36.5 L 22.5 38 L 23 33 Q 26.8 31.5 26 34.5 L 27 34.5 L 28 32.5 L 27.5 31 L 29 30.5 L 26.5 30 L 23 31 L 26 17 L 34.5 14 Z M 30 29 L 30 30 L 35 30 L 30 29 Z M 48 29 L 48 30 L 52 30 L 48 29 Z M 51 31 L 46 33 L 52 33 Q 53 30 51 31 Z M 30 32 L 30 33 L 35 33 L 30 32 Z M 36 33 L 36 35 L 34 36 L 31 35 L 27 36 L 28 38 Q 29 41 36 39 L 38 35 Q 39 32 36 33 Z M 25 37 L 26 43 Q 25 45 28 44 L 28 49 L 33 57 L 38 60 L 46 59 L 50 55 L 49 54 L 52 49 Q 53 46 51 47 L 49 47 L 46 48 L 48 48 L 44 53 L 38 53 L 44 51 Q 46 52 45 50 L 46 48 L 35 49 L 42 51 L 37 52 L 33 49 L 34 48 L 32 47 L 30 45 L 32 44 L 33 46 L 49 46 L 48 42 L 41 45 L 37 44 L 35 42 L 34 42 L 27 39 Q 28 36 25 37 Z M 40 61 L 40 62 L 44 62 L 40 61 Z " /><path fill="rgb(195,136,113)" stroke="rgb(195,136,113)" stroke-width="1" opacity="0.996078431372549" d="M 59.5 17 L 60 19.5 L 59 19.5 L 59.5 17 Z " /><path fill="rgb(195,136,113)" stroke="rgb(195,136,113)" stroke-width="1" opacity="0.996078431372549" d="M 18.5 26 L 19 29.5 L 18 29.5 L 18.5 26 Z " /><path fill="rgb(195,136,113)" stroke="rgb(195,136,113)" stroke-width="1" opacity="0.996078431372549" d="M 51.5 60 L 54 61 L 54.5 63 L 56 62.5 L 54.5 67 L 51 61.5 L 51.5 60 Z " /><path fill="rgb(195,136,113)" stroke="rgb(195,136,113)" stroke-width="1" opacity="0.996078431372549" d="M 18.5 67 L 17.5 69 L 18.5 67 Z " /><path fill="rgb(195,136,113)" stroke="rgb(195,136,113)" stroke-width="1" opacity="0.996078431372549" d="M 52.5 70 L 48.5 75 L 52.5 70 Z " /><path fill="rgb(195,136,113)" stroke="rgb(195,136,113)" stroke-width="1" opacity="0.996078431372549" d="M 31.5 74 L 32.5 76 L 31.5 74 Z " /><path fill="rgb(195,136,113)" stroke="rgb(195,136,113)" stroke-width="1" opacity="0.996078431372549" d="M 38.5 77 L 43 77.5 L 38.5 78 L 38.5 77 Z " /><path fill="rgb(245,189,165)" stroke="rgb(245,189,165)" stroke-width="1" opacity="0.996078431372549" d="M 21.5 9 L 20.5 11 L 21.5 9 Z " /><path fill="rgb(245,189,165)" stroke="rgb(245,189,165)" stroke-width="1" opacity="0.996078431372549" d="M 36.5 15 L 42.5 15 Q 44.2 17.8 49.5 17 L 54 20.5 Q 53.4 27.8 56 31 L 54 31 Q 55.5 27.3 52.5 28 L 50.5 28 L 46.5 27 L 43 29.5 L 43 31 L 38 31 L 36.5 28 L 28.5 27 Q 27.2 29.3 26 26.5 L 28 19.5 L 30.5 17 L 36.5 15 Z M 44 25 L 44 26 L 47 26 L 44 25 Z " /><path fill="rgb(245,189,165)" stroke="rgb(245,189,165)" stroke-width="1" opacity="0.996078431372549" d="M 29.5 29 L 35 29.5 L 29.5 30 L 29.5 29 Z " /><path fill="rgb(245,189,165)" stroke="rgb(245,189,165)" stroke-width="1" opacity="0.996078431372549" d="M 47.5 29 L 52 29.5 L 47.5 30 L 47.5 29 Z " /><path fill="rgb(245,189,165)" stroke="rgb(245,189,165)" stroke-width="1" opacity="0.996078431372549" d="M 43.5 32 L 45 35 L 49.5 36 L 49.5 34 L 54.5 37 Q 55.8 34.8 57 37.5 L 56 40.5 L 57 40.5 L 58.5 37 L 59 38.5 Q 56.7 39.8 58 44.5 L 56.5 46 L 55.5 43 L 51.5 45 L 48 42.5 L 49 46 L 32.5 46 L 32 43.5 L 30 44.5 L 36.5 52 L 41.5 51 L 45.5 48 L 45 49.5 L 45.5 51 L 52 47 L 49 53.5 L 50 54.5 L 45.5 59 L 37.5 60 L 33 56.5 L 28 48.5 L 28 44 Q 25.3 45.1 26 42.5 L 25 37 Q 27.7 35.9 27 38.5 L 33.5 42 L 35 41.5 L 36.5 44 L 40.5 45 L 46 42.5 L 38.5 41 L 36 42 L 40.5 34 L 46.5 42 L 49.5 41 L 51 41.5 Q 51.9 38.5 47.5 40 L 45 39 L 43 34.5 L 43.5 32 Z M 44 51 L 39 52 L 39 53 Q 44 54 45 52 L 44 51 Z M 42 56 Q 41 59 44 58 Q 45 55 42 56 Z " /><path fill="rgb(245,189,165)" stroke="rgb(245,189,165)" stroke-width="1" opacity="0.996078431372549" d="M 36 33 Q 38.7 31.9 38 34.5 L 35.5 39 Q 29.5 40.5 28 37.5 L 27 35.5 L 30.5 35 L 33.5 36 L 36 35 L 36 33 Z " /><path fill="rgb(245,189,165)" stroke="rgb(245,189,165)" stroke-width="1" opacity="0.996078431372549" d="M 21.5 35 L 20.5 37 L 21.5 35 Z " /><path fill="rgb(245,189,165)" stroke="rgb(245,189,165)" stroke-width="1" opacity="0.996078431372549" d="M 51.5 56 L 52 59.5 L 51 61.5 L 54 67.5 L 46.5 76 L 36.5 77 L 29 72.5 L 27 69.5 Q 28.2 67 32 68 L 30 64 Q 35.3 62.8 34.5 66 L 42.5 66 L 51 59 L 51.5 56 Z " /><path fill="rgb(231,231,230)" stroke="rgb(231,231,230)" stroke-width="1" opacity="1" d="M 60 34 Q 63 33 62 36 Q 59 35 60 38 L 62 38 Q 60.8 43.3 64 42.5 L 64 52 L 62 52 L 62 57.5 Q 59.3 56.9 60 60 Q 63 59 62 62 Q 59.3 60.9 60 63.5 L 60.5 65 L 52 59.5 L 52 54.5 Q 56.6 51.8 56 46 Q 60 47.4 58 40.5 L 60 34 Z " /><path fill="rgb(231,231,230)" stroke="rgb(231,231,230)" stroke-width="1" opacity="1" d="M 22 46 Q 25 44.8 24 48.5 L 28 55.5 L 28 61.5 L 24.5 64 L 24 58 L 22 57.5 L 22 46 Z " /><path fill="rgb(231,231,230)" stroke="rgb(231,231,230)" stroke-width="1" opacity="1" d="M 39.5 48 L 41.5 48 L 45 48.5 L 39 50 L 39.5 48 Z " /><path fill="rgb(221,220,221)" stroke="rgb(221,220,221)" stroke-width="1" opacity="0.9921568627450981" d="M 57 8 L 64 8 L 64 10 L 68 12 L 68 21.5 Q 70.8 20.9 70 24 L 68 24.5 L 68 32 L 70 32.5 L 70 41.5 Q 73.3 40.7 72 46 Q 69 45 70 48 Q 75.2 46.3 74 50 Q 70.3 48.8 72 54 Q 75 53 74 56 L 72 56.5 L 72 66 Q 66.8 64.3 68 68 L 71 68.5 L 67.5 69 L 60 63.5 Q 59.3 60.9 62 62 L 62 60 Q 59 61 60 58 L 62 58 L 62 52 L 64 51.5 L 64 42 L 62 42 L 62 38 Q 59.3 39.1 60 36.5 L 59.5 35 L 62 36 Q 63 33 60 34 L 60 31.5 L 60 27.5 L 61 25.5 L 61 23.5 Q 58.7 20.3 60 13.5 L 57 8 Z " /><path fill="rgb(221,220,221)" stroke="rgb(221,220,221)" stroke-width="1" opacity="0.9921568627450981" d="M 16.5 18 L 17 21.5 L 16 24 L 18 24.5 L 18 26.5 L 18 37.5 L 22 45.5 L 22 58 Q 26 56.6 24 63.5 L 13.5 71 L 6.5 62 L 5 62.5 L 6 60.5 L 3.5 56 L 2 56.5 L 4 52 L 2 52 L 2 46 L 4 46 L 6 42 L 4 42 L 4 36 Q 7 37 6 34 Q 3 35 4 32 L 6 32 L 8 36 L 10 36 L 10 32.5 Q 6.8 33.3 8 28 Q 13.2 29.7 12 26 Q 9 27 10 24 L 14 26 L 14 22 L 16 22 L 16.5 18 Z M 6 38 Q 5 41 8 40 Q 9 37 6 38 Z " /><path fill="rgb(221,220,221)" stroke="rgb(221,220,221)" stroke-width="1" opacity="0.9921568627450981" d="M 43.5 25 L 47 25.5 L 43.5 26 L 43.5 25 Z " /><path fill="rgb(221,220,221)" stroke="rgb(221,220,221)" stroke-width="1" opacity="0.9921568627450981" d="M 42 56 Q 45 55 44 58 Q 41 59 42 56 Z " /><path fill="rgb(0,0,0)" stroke="rgb(0,0,0)" stroke-width="1" opacity="0" d="M 0 0 L 32 0.5 Q 15.3 4.3 7 16.5 Q 1.9 22.4 0.5 32 L 0 0 Z " /><path fill="rgb(0,0,0)" stroke="rgb(0,0,0)" stroke-width="1" opacity="0" d="M 50.5 0 L 82 0 L 82 31.5 L 81 31.5 Q 77.8 14.7 65.5 7 L 56.5 2 L 50.5 1 L 50.5 0 Z " /><path fill="rgb(0,0,0)" stroke="rgb(0,0,0)" stroke-width="1" opacity="0" d="M 0.5 50 L 5 62.5 L 14 74 L 32 81.5 L 0 82 L 0.5 50 Z " /><path fill="rgb(0,0,0)" stroke="rgb(0,0,0)" stroke-width="1" opacity="0" d="M 81.5 50 L 82 82 L 50 81.5 L 68 74 L 68 72 Q 70.7 73.1 70 70.5 Q 79 63.5 81.5 50 Z " /></svg>